<?xml version="1.0" encoding="utf-8"?>
<!-- Generator: Adobe Illustrator 22.1.0, SVG Export Plug-In . SVG Version: 6.00 Build 0)  -->
<svg version="1.1" id="レイヤー_1" xmlns="http://www.w3.org/2000/svg" xmlns:xlink="http://www.w3.org/1999/xlink" x="0px"
	 y="0px" viewBox="0 0 490 60" style="enable-background:new 0 0 490 60;" xml:space="preserve">
<style type="text/css">
	.st0{fill:#11100F;}
</style>
<g>
	<g>
		<path class="st0" d="M47.2,41.3H33.6l-2,4.2c-0.3,0.6-0.4,1-0.4,1.4c0,0.6,0.5,1.1,1.5,1.3v0.7h-9.9v-0.7c0.6-0.1,1-0.3,1.3-0.6
			s0.7-0.9,1.1-1.7l11-23c0.4-0.7,0.5-1.3,0.5-1.8c0-0.7-0.4-1.2-1.3-1.4V19H46v0.7c-0.9,0.2-1.3,0.7-1.3,1.3c0,0.4,0.1,0.9,0.4,1.4
			l11.4,23.1c0.5,1,0.9,1.7,1.3,2c0.4,0.4,0.9,0.6,1.5,0.7v0.7h-11v-0.7c1-0.2,1.5-0.6,1.5-1.4c0-0.3-0.1-0.8-0.4-1.4L47.2,41.3z
			 M45.3,37.1l-4.9-10.7l-4.9,10.7H45.3z"/>
	</g>
	<g>
		<path class="st0" d="M109.7,36.7v10c0,0.4,0.1,0.8,0.3,1c0.2,0.2,0.6,0.4,1.1,0.6V49h-9.4v-0.7c0.5-0.1,0.9-0.3,1.1-0.6
			c0.2-0.2,0.3-0.6,0.3-1V21.2c0-0.5-0.1-0.8-0.3-1c-0.2-0.2-0.6-0.4-1.1-0.6v-0.7h18.8c2.3,0,4.1,0.1,5.4,0.4s2.5,0.7,3.5,1.4
			c1.2,0.8,2,1.8,2.6,3.1c0.5,1.3,0.8,2.6,0.8,4c0,4.9-2.7,7.8-8.2,8.6l5.8,8.3c1,1.5,1.8,2.4,2.3,2.8c0.5,0.4,1.1,0.6,1.7,0.7v0.7
			h-10.8v-0.7c0.7-0.1,1.1-0.4,1.1-0.8c0-0.3-0.3-0.9-1-1.9l-6.1-8.8H109.7z M109.7,31.7h10.1c1.5,0,2.5,0,3.2-0.1
			c0.6-0.1,1.2-0.3,1.7-0.5c1.1-0.6,1.7-1.7,1.7-3.3c0-1.6-0.6-2.7-1.7-3.3c-0.5-0.3-1.1-0.5-1.7-0.6s-1.7-0.1-3.2-0.1h-10.1V31.7z"
			/>
	</g>
	<g>
		<path class="st0" d="M185,36.7v10c0,0.4,0.1,0.8,0.3,1s0.6,0.4,1.1,0.6V49H177v-0.7c0.5-0.1,0.9-0.3,1.1-0.6
			c0.2-0.2,0.3-0.6,0.3-1V21.2c0-0.5-0.1-0.8-0.3-1s-0.6-0.4-1.1-0.6v-0.7h18.8c2.3,0,4.1,0.1,5.4,0.4c1.3,0.3,2.5,0.7,3.5,1.4
			c1.2,0.8,2,1.8,2.6,3.1c0.5,1.3,0.8,2.6,0.8,4c0,4.9-2.7,7.8-8.2,8.6l5.8,8.3c1,1.5,1.8,2.4,2.3,2.8c0.5,0.4,1.1,0.6,1.7,0.7v0.7
			H199v-0.7c0.7-0.1,1.1-0.4,1.1-0.8c0-0.3-0.3-0.9-1-1.9l-6.1-8.8H185z M185,31.7h10.1c1.5,0,2.5,0,3.2-0.1
			c0.6-0.1,1.2-0.3,1.7-0.5c1.1-0.6,1.7-1.7,1.7-3.3c0-1.6-0.6-2.7-1.7-3.3c-0.5-0.3-1.1-0.5-1.7-0.6c-0.6-0.1-1.6-0.1-3.2-0.1H185
			V31.7z"/>
	</g>
	<g>
		<path class="st0" d="M253.7,46.6V21.2c0-0.4-0.1-0.8-0.3-1s-0.6-0.4-1.1-0.6v-0.7h9.4v0.7c-0.5,0.1-0.9,0.3-1.1,0.6
			c-0.2,0.2-0.3,0.6-0.3,1v25.4c0,0.5,0.1,0.8,0.3,1c0.2,0.2,0.6,0.4,1.1,0.6v0.7h-9.4v-0.7c0.5-0.1,0.9-0.3,1.1-0.6
			C253.6,47.4,253.7,47,253.7,46.6z"/>
	</g>
	<g>
		<path class="st0" d="M321.8,40.2l8-17.6c0.3-0.7,0.5-1.3,0.5-1.7c0-0.6-0.5-1-1.5-1.2V19h10.3v0.7c-0.6,0.1-1.1,0.3-1.3,0.5
			c-0.2,0.3-0.7,1.1-1.3,2.4L326.1,45c-0.4,1-0.7,1.6-0.7,1.9c0,0.7,0.5,1.2,1.4,1.3v0.7h-10.3v-0.7c0.9-0.1,1.4-0.6,1.4-1.3
			c0-0.3-0.2-0.9-0.7-1.8l-10.4-22.4c-0.6-1.3-1-2.1-1.3-2.4c-0.2-0.3-0.7-0.5-1.3-0.5v-0.7h10.7v0.7c-1,0.2-1.5,0.6-1.5,1.2
			c0,0.4,0.2,1,0.5,1.7L321.8,40.2z"/>
	</g>
	<g>
		<path class="st0" d="M398.4,41.3h-13.6l-2,4.2c-0.3,0.6-0.4,1-0.4,1.4c0,0.6,0.5,1.1,1.5,1.3v0.7H374v-0.7c0.6-0.1,1-0.3,1.3-0.6
			s0.7-0.9,1.1-1.7l11-23c0.4-0.7,0.5-1.3,0.5-1.8c0-0.7-0.4-1.2-1.3-1.4V19h10.6v0.7c-0.9,0.2-1.3,0.7-1.3,1.3
			c0,0.4,0.1,0.9,0.4,1.4l11.4,23.1c0.5,1,0.9,1.7,1.3,2c0.4,0.4,0.9,0.6,1.5,0.7v0.7h-11v-0.7c1-0.2,1.5-0.6,1.5-1.4
			c0-0.3-0.1-0.8-0.4-1.4L398.4,41.3z M396.5,37.1l-4.9-10.7l-4.9,10.7H396.5z"/>
	</g>
	<g>
		<path class="st0" d="M459.4,44h18.4c0.5,0,0.8-0.1,1-0.3s0.4-0.6,0.6-1.1h0.7v7.8h-0.7c-0.1-0.5-0.3-0.9-0.6-1.1s-0.6-0.3-1-0.3
			h-26.4v-0.7c0.5-0.1,0.9-0.3,1.1-0.6c0.2-0.2,0.3-0.6,0.3-1V21.2c0-0.5-0.1-0.8-0.3-1c-0.2-0.2-0.6-0.4-1.1-0.6v-0.7h9.4v0.7
			c-0.5,0.1-0.9,0.3-1.1,0.6c-0.2,0.2-0.3,0.6-0.3,1V44z"/>
	</g>
</g>
</svg>
