<svg width="100" height="120" xmlns="http://www.w3.org/2000/svg">
 <style type="text/css">.st0{fill:#0068B6;}
	.st1{fill:#009043;}</style>

 <g>
  <title>background</title>
  <rect fill="none" id="canvas_background" height="122" width="102" y="-1" x="-1"/>
 </g>
 <g>
  <title>Layer 1</title>
  <g id="XMLID_10_">
   <g id="XMLID_114_">
    <path d="m105.7,55.3l5.5,-3.7c0.2,-0.2 0.7,-0.2 0.9,-0.2c0.3,0 0.9,0.2 0.9,0.6c0,0.1 0,0.2 -0.2,0.3l-4.7,3.1c1.1,0.4 1.3,0.5 3,1.8c1.4,1.1 2.5,2.4 2.5,2.6c0,0.3 -0.4,0.7 -1.1,0.7c-0.5,0 -0.6,-0.2 -0.7,-0.2l-3,-2.8c-0.7,-0.7 -1.4,-1 -2,-1.3l-1.1,0.7l0,3c0,0.3 -0.4,0.7 -1,0.7c-0.5,0 -1,-0.3 -1,-0.7l0,-8c0,-0.3 0.4,-0.7 1,-0.7c0.6,0 1,0.3 1,0.7l0,3.4z" id="XMLID_153_"/>
    <path d="m122.3,56.3c-0.3,0.3 -0.7,0.5 -0.9,0.5l0,3.3c0,0.3 -0.4,0.7 -1,0.7c-0.6,0 -1,-0.3 -1,-0.7l0,-3.3c-0.2,0 -0.6,-0.2 -0.9,-0.5l-3.4,-3.9c-0.1,-0.2 -0.1,-0.3 -0.1,-0.3c0,-0.5 0.6,-0.7 1,-0.7c0.4,0 0.7,0.1 0.9,0.3l3.3,3.8c0.1,0.1 0.1,0.1 0.2,0.1c0.1,0 0.2,0 0.2,-0.1l3.3,-3.8c0.2,-0.3 0.7,-0.3 0.9,-0.3c0.6,0 1.1,0.3 1.1,0.7c0,0.1 -0.1,0.2 -0.1,0.3l-3.5,3.9z" id="XMLID_151_"/>
    <path d="m132.9,60.9c-2.1,0 -6.1,-0.9 -6.1,-4.8c0,-3.3 3.2,-4.7 6.1,-4.7c1.7,0 3.7,0.5 4.8,1.7c0.5,0.5 1.3,1.4 1.3,3.1c0,3.6 -3.6,4.7 -6.1,4.7zm0,-8.2c-1.7,0 -4,0.8 -4,3.5c0,2.2 1.8,3.4 4,3.4c1.2,0 2.4,-0.4 3.1,-1.1c0.5,-0.5 0.9,-1.2 0.9,-2.4c0,-2.4 -2.1,-3.4 -4,-3.4z" id="XMLID_148_"/>
    <path d="m143.1,55.3l5.5,-3.7c0.2,-0.2 0.7,-0.2 0.9,-0.2c0.3,0 0.9,0.2 0.9,0.6c0,0.1 0,0.2 -0.2,0.3l-4.7,3.1c1.1,0.4 1.3,0.5 3,1.8c1.4,1.1 2.5,2.4 2.5,2.6c0,0.3 -0.4,0.7 -1.1,0.7c-0.5,0 -0.6,-0.2 -0.7,-0.2l-3,-2.8c-0.7,-0.7 -1.4,-1 -2,-1.3l-1.1,0.7l0,3c0,0.3 -0.4,0.7 -1,0.7c-0.5,0 -1,-0.3 -1,-0.7l0,-8c0,-0.3 0.4,-0.7 1,-0.7c0.6,0 1,0.3 1,0.7l0,3.4z" id="XMLID_146_"/>
    <path d="m154.8,55.3l5.5,-3.7c0.2,-0.2 0.7,-0.2 0.9,-0.2c0.3,0 0.9,0.2 0.9,0.6c0,0.1 0,0.2 -0.2,0.3l-4.7,3.1c1.1,0.4 1.3,0.5 3,1.8c1.4,1.1 2.5,2.4 2.5,2.6c0,0.3 -0.4,0.7 -1.1,0.7c-0.5,0 -0.6,-0.2 -0.7,-0.2l-3,-2.8c-0.7,-0.7 -1.4,-1 -2,-1.3l-1.1,0.7l0,3c0,0.3 -0.4,0.7 -1,0.7c-0.5,0 -1,-0.3 -1,-0.7l0,-8c0,-0.3 0.4,-0.7 1,-0.7c0.6,0 1,0.3 1,0.7l0,3.4z" id="XMLID_144_"/>
    <path d="m169.5,60.9c-2.1,0 -6.1,-0.9 -6.1,-4.8c0,-3.3 3.2,-4.7 6.1,-4.7c1.7,0 3.7,0.5 4.8,1.7c0.5,0.5 1.3,1.4 1.3,3.1c0,3.6 -3.6,4.7 -6.1,4.7zm0,-8.2c-1.7,0 -4,0.8 -4,3.5c0,2.2 1.8,3.4 4,3.4c1.2,0 2.4,-0.4 3.1,-1.1c0.5,-0.5 0.9,-1.2 0.9,-2.4c0,-2.4 -2.1,-3.4 -4,-3.4z" id="XMLID_141_"/>
    <path d="m131.3,15.9c0.9,0 2,0 2.8,0.9c0.2,0.2 0.8,1.2 0.8,1.9l0,17.7c0,0.7 -0.5,1.6 -1.2,2.2c-0.8,0.6 -1.6,0.6 -2.4,0.6l-8.4,0c-0.9,0 -2,0 -2.8,-0.9c-0.2,-0.3 -0.8,-1.2 -0.8,-1.9l0,-17.8c0,-0.6 0.5,-1.6 1.2,-2.2c0.8,-0.6 1.6,-0.6 2.4,-0.6l8.4,0l0,0.1zm-0.3,9.4l0,-4.8c0,-0.7 -0.2,-1 -0.9,-1l-6.2,0c-0.9,0 -0.9,0.4 -0.9,1l0,4.8l8,0zm-8.1,3.5l0,5.6c0,0.6 0.1,1 0.9,1l6.2,0c0.8,0 0.9,-0.3 0.9,-1l0,-5.6l-8,0zm-9.1,-7.3c2.5,0 3.6,1.3 3.6,3.5l0,15.3c0,1.9 0.3,2.8 2.4,2.8l11.2,0c1.7,0 2,-1.3 2.2,-2.5c0.3,-1.6 1.5,-1.6 1.8,-1.6c2,0 2,1.5 2,2.1c0,1.1 -0.5,3.2 -1.7,4.4c-0.5,0.4 -1.7,1.4 -3.2,1.4l-12.9,0c-3.6,0 -5.8,-1.7 -5.8,-5.5l0,-15.4c0,-0.8 -0.3,-0.8 -0.9,-0.8l-1.8,0l0,2.1c0,4.2 0,10.5 -2.7,16c-0.7,1.4 -1.9,3.5 -3.7,3.5c-0.6,0 -1.9,-0.4 -1.9,-1.7c0,-0.5 0,-0.6 1.8,-3.3c2.1,-3.3 2.5,-9.6 2.6,-10.8c0,-0.9 0.2,-4.9 0.2,-5.8l-1.6,0c-1.5,0 -3,0 -3,-1.8c0,-1.9 1.5,-1.9 3,-1.9l1.7,0c0,-0.6 0,-1.3 0,-2.4c0,-0.4 -0.1,-2.2 -0.1,-2.5c0,-0.8 0,-2.1 1.8,-2.1c1.9,0 1.9,1.6 1.9,2.7c0,1.3 0,3.1 0,4.4l3.1,0l0,-0.1z" id="XMLID_136_"/>
    <path d="m153.4,27.4c0,-1.8 1.4,-2.1 2.3,-2.1l3.3,0c1.1,0 2.3,0.5 2.3,2.1l0,5.3c0,1.8 -1.4,2.1 -2.3,2.1l-3.3,0c-1.1,0 -2.3,-0.5 -2.3,-2.1l0,-5.3zm3.4,0.9c-0.3,0 -0.5,0 -0.5,0.6l0,2.4c0,0.3 0.2,0.4 0.5,0.4l1.2,0c0.4,0 0.4,-0.3 0.4,-0.6l0,-2.4c0,-0.3 0,-0.4 -0.4,-0.4l-1.2,0zm-10.9,-5.8c1.1,0 2.7,0 2.7,1.8c0,1.8 -1.6,1.8 -2.7,1.8l-0.8,0l0.2,3.3l0.8,0c0.8,0 2.5,0 2.5,1.7c0,1.7 -1.7,1.7 -2.5,1.7l-0.7,0l0.2,4.8l3.7,0l0,-20.2c0,-0.7 0.9,-2.2 2.3,-2.2l11.5,0c1.6,0 2.6,1.1 2.6,2.2l0,20.3l3.9,0l0.2,-5l-0.9,0c-0.6,0 -2.5,0 -2.5,-1.6c0,-1.7 1.8,-1.7 2.5,-1.7l0.9,0l0.1,-3.3l-0.9,0c-0.9,0 -2.6,0 -2.6,-1.8c0,-0.8 0.4,-1.2 0.8,-1.5c0.4,-0.3 0.9,-0.3 1.8,-0.3l1,0l0,-2.5c0,-0.5 -0.2,-0.8 -0.6,-0.8c-0.7,0 -2,-0.1 -2.1,-0.1c-0.4,-0.2 -0.9,-0.6 -0.9,-1.4c0,-0.6 0.3,-1.1 0.8,-1.5c0.4,-0.3 0.9,-0.3 2.2,-0.3l2.1,0c1.3,0 1.7,0.8 1.8,1.1c0.1,0.3 0.1,0.6 0.1,1.4l-0.6,19.2c1.7,0.1 2,1.2 2,1.6c0,0.7 -0.5,1.2 -0.8,1.4c-0.4,0.3 -0.9,0.3 -2.2,0.3l-28.3,0c-1.2,0 -1.8,0 -2.2,-0.3c-0.8,-0.5 -0.8,-1.2 -0.8,-1.4c0,-0.6 0.4,-1.5 1.7,-1.6l-0.6,-18.1c0,-1.1 0.3,-1.6 0.6,-2c0.5,-0.5 4,-2.3 4.8,-2.3c1.2,0 1.7,1 1.7,1.6c0,0.8 -0.9,1.4 -1,1.5c-0.9,0.5 -2.5,1.4 -2.6,1.5c-0.2,0.1 -0.2,0.3 -0.1,0.5l0.1,2.1l0.8,0l0,0.1zm16.8,15.1l0,-18.6c0,-0.5 -0.3,-0.5 -0.7,-0.5l-9.2,0c-0.5,0 -0.8,0.5 -0.8,0.8l0,18.4l10.7,0l0,-0.1zm-3.8,-17c1.4,0 3,0 3,1.4c0,1.4 -1.5,1.4 -3,1.4l-3.1,0c-1.4,0 -3,0 -3,-1.4c0,-1.4 1.5,-1.4 3,-1.4l3.1,0zm-4.9,22.3c0,0.8 -0.4,1.3 -2,2.1c-3.5,1.6 -7.2,2.7 -8.4,2.7c-1.2,0 -1.8,-1.1 -1.8,-1.7c0,-1.4 1.5,-1.6 2.4,-1.8c1.4,-0.3 2.1,-0.6 6.5,-2.3c0.2,-0.1 1.4,-0.6 1.5,-0.6c0.6,-0.1 1.8,0.3 1.8,1.6zm8.5,1.9c-0.5,-0.2 -1.5,-0.7 -1.5,-1.8c0,-1 1,-1.6 1.7,-1.6c1.1,0 5.6,1.8 6.6,2.1c0.5,0.1 2.6,0.6 3,0.7c1,0.3 1.2,1.1 1.2,1.6c0,1.1 -1.1,1.6 -1.5,1.6c-2.4,0 -9.5,-2.6 -9.5,-2.6z" id="XMLID_128_"/>
    <path d="m199.4,34.3c-0.8,1.7 -2.3,5.1 -4.9,7.8c-2.1,2.2 -2.7,2.2 -3.3,2.2c-1.4,0 -1.8,-1.1 -1.8,-1.6c0,-0.7 0,-0.7 1.8,-2.6c3.8,-4 5.5,-8.5 5.7,-9l-3.5,0c-1.2,0 -1.8,0 -2.2,-0.3c-0.3,-0.2 -0.8,-0.7 -0.8,-1.4c0,-0.5 0.2,-1 0.9,-1.4c0.4,-0.3 0.9,-0.3 2.1,-0.3l6.1,0l0,-4.6l-4.1,0c-1.1,2.6 -1.6,3.4 -2.9,3.4c-1.6,0 -2,-1.1 -2,-1.6c0,-0.4 0.1,-0.6 0.8,-1.9c1.2,-2.3 1.5,-3.7 2.2,-6.4c0.3,-1.3 1.1,-1.6 1.6,-1.6c0.6,0 2,0.5 2,1.8c0,0.4 -0.1,1.6 -0.5,3l3,0l0,-2.4c0,-1.2 0,-1.7 0.3,-2.1c0.4,-0.5 0.9,-0.8 1.6,-0.8c0.5,0 0.9,0.1 1.4,0.5c0.5,0.5 0.5,0.9 0.5,2.4l0,2.4l5.1,0c1.2,0 1.8,0 2.2,0.3c0.2,0.2 0.8,0.6 0.8,1.4c0,0.8 -0.6,1.2 -0.8,1.4c-0.4,0.3 -0.9,0.3 -2.1,0.3l-5.1,0l0,4.6l5.5,0c1.5,0 2,0 2.5,0.5c0.3,0.3 0.5,0.8 0.5,1.1c0,0.4 -0.2,0.9 -0.6,1.2c-0.5,0.5 -0.9,0.5 -2.4,0.5l-2.7,0c0.8,2.3 3,6.6 5.1,8.9c1.4,1.4 1.9,2 1.9,2.9c0,1.1 -1,1.6 -1.6,1.6c-1.4,0 -2.4,-1.3 -4.9,-4.5c-0.1,-0.2 -2.3,-3.3 -3.4,-6.4l0,11.2c0,1.2 0,1.7 -0.3,2c-0.4,0.6 -1,0.8 -1.6,0.8c-0.5,0 -1,-0.1 -1.4,-0.5c-0.5,-0.5 -0.5,-0.9 -0.5,-2.4l0,-10.4l-0.2,0zm-12.8,10.4c0,1.2 0,1.6 -0.3,2c-0.5,0.7 -1,0.8 -1.5,0.8c-0.8,0 -1.2,-0.5 -1.4,-0.8c-0.3,-0.4 -0.3,-0.9 -0.3,-2l0,-11.4c-1.4,2.6 -2.4,3.8 -2.6,4c-0.5,0.6 -0.9,1 -1.7,1c-1.4,0 -1.7,-1.1 -1.7,-1.6c0,-0.6 0.2,-0.8 1.5,-2.7c1.3,-1.9 2.8,-5 3.4,-6.7c0.2,-0.5 0.8,-2.5 0.9,-2.9l-1.9,0c-1.2,0 -1.7,0 -2.1,-0.3c-0.8,-0.5 -0.9,-1.2 -0.9,-1.5c0,-0.7 0.5,-1.2 0.8,-1.4c0.4,-0.3 0.9,-0.3 2.2,-0.3l2.1,0l0,-3.3c0,-1.2 0,-1.6 0.3,-2c0.5,-0.7 1,-0.8 1.5,-0.8c0.8,0 1.2,0.5 1.4,0.8c0.3,0.4 0.3,0.9 0.3,2l0,3.4l1,0c1.2,0 1.8,0 2.1,0.3c0.8,0.5 0.9,1.2 0.9,1.5c0,0.7 -0.5,1.2 -0.8,1.4c-0.4,0.3 -0.9,0.3 -2.2,0.3l-1,0l0,0.2c0.7,2.7 3.3,6.4 3.8,6.9c1.2,1.5 1.3,1.7 1.3,2.3c0,1.1 -0.9,1.6 -1.8,1.6c-1.3,0 -1.9,-0.9 -3.3,-3.2l0,12.4z" id="XMLID_125_"/>
    <path d="m239.7,24.1c0.6,15.4 5.4,18.6 6,18.6c0.4,0 0.6,-0.3 0.7,-1.3c0.1,-0.6 0.3,-3.9 0.3,-4c0.2,-0.7 0.9,-1.2 1.7,-1.2c1.8,0 1.8,1.6 1.8,2.6c0,3.3 -0.5,8.3 -3.6,8.3c-0.8,0 -2.3,-0.5 -3.4,-1.5c-2.6,-2.4 -4.9,-5.9 -6.2,-14.5c-0.4,-2.4 -0.7,-4.7 -0.8,-7.1l-17.5,0c-1.2,0 -1.7,0 -2.1,-0.3c-0.8,-0.5 -0.9,-1.1 -0.9,-1.5c0,-0.7 0.5,-1.2 0.8,-1.4c0.4,-0.3 0.9,-0.3 2.2,-0.3l17.4,0c0,-3.3 0,-4.4 0.2,-5c0.1,-0.3 0.4,-1.3 1.7,-1.3c0.5,0 1.1,0.2 1.5,0.6c0.5,0.4 0.5,0.7 0.5,2l0,2.2l0,1.5l5.6,0c-0.5,-0.4 -2,-2.8 -2.4,-3.2c-0.7,-0.9 -0.9,-1.1 -0.9,-1.6c0,-1 0.8,-1.7 1.8,-1.7c0.9,0 1.4,0.5 1.9,1.1c0.4,0.5 2.6,3 2.6,3.9c0,0.9 -0.5,1.3 -0.9,1.5c0.4,0 2.1,0 2.1,1.7c0,0.7 -0.4,1.2 -0.8,1.4c-0.4,0.3 -0.9,0.3 -2.2,0.3l-7.1,0l0,0.2zm-12.2,16.9c2.4,-0.5 3.2,-0.7 6.2,-1.5c0.3,-0.1 0.7,-0.1 0.9,-0.1c0.9,0 1.7,0.8 1.7,1.7c0,1.4 -1.2,1.7 -3.8,2.4c-6.2,1.6 -13.5,2.6 -15.2,2.6c-1.4,0 -2,-0.9 -2,-1.9c0,-1.6 1.4,-1.8 2.1,-1.8c3.3,-0.3 3.5,-0.4 6.4,-0.8l0,-9.1l-4.6,0c-1.2,0 -1.8,0 -2.2,-0.3c-0.8,-0.5 -0.8,-1.2 -0.8,-1.5c0,-0.7 0.4,-1.2 0.8,-1.4c0.4,-0.3 0.9,-0.3 2.2,-0.3l12.5,0c1.2,0 1.8,0 2.2,0.3c0.8,0.5 0.8,1.2 0.8,1.5c0,0.7 -0.4,1.2 -0.8,1.4c-0.4,0.3 -0.9,0.3 -2.2,0.3l-4.4,0l0,8.5l0.2,0z" id="XMLID_122_"/>
    <path d="m256.3,35.6c-1.4,0 -1.9,0 -2.4,-0.5c-0.3,-0.4 -0.6,-0.9 -0.6,-1.3c0,-0.4 0.3,-1.1 0.9,-1.4c0.5,-0.3 1.1,-0.3 2.1,-0.3l27.6,0c1.4,0 1.9,0 2.4,0.5c0.3,0.4 0.6,0.9 0.6,1.3c0,0.4 -0.3,1.1 -0.9,1.4c-0.5,0.3 -1.1,0.3 -2.1,0.3l-17.4,0c-0.4,1.3 -2.3,5.5 -3.1,7.1c4.4,-0.3 7,-0.4 13.2,-0.9c0.7,0 1.5,-0.1 2,-0.1c-0.3,-0.4 -1.7,-2.1 -2,-2.4c-0.4,-0.5 -0.5,-0.8 -0.5,-1.1c0,-1.2 1,-1.8 1.9,-1.8c0.6,0 0.9,0.1 2.4,1.7c2.3,2.6 4.3,5.4 4.8,6.1c0.4,0.6 0.5,0.9 0.5,1.4c0,1.2 -1.2,1.8 -1.8,1.8c-0.1,0 -0.8,0 -1.4,-0.5c-0.1,-0.1 -0.9,-1.3 -1.4,-2c-3.8,0.6 -19.3,1.6 -20.3,1.7c-0.7,0 -4,0.3 -4.6,0.3c-1.8,0 -2.3,-1.1 -2.3,-1.9c0,-0.9 0.6,-1.6 1.7,-1.8c0.4,-0.1 2.4,-0.1 3.7,-0.2c2,-3.9 2.7,-5.9 3.3,-7.4l-6.3,0zm14.4,-17.2c-0.5,-0.3 -0.6,-0.3 -0.8,-0.3c-0.4,0 -0.7,0.2 -1.3,0.6c-3.4,2.3 -6.9,4.6 -11.9,7.4c-1.1,0.6 -1.4,0.8 -2,0.8c-1.2,0 -1.8,-1 -1.8,-1.9c0,-1 0.5,-1.3 2.5,-2.3c4.2,-2.1 6.1,-3.4 11,-6.8c1.4,-1 2.3,-1.5 3.6,-1.5c1.4,0 2.4,0.8 6.2,3.3c1.2,0.8 6.9,4.5 9.6,5.8c0.8,0.4 1.6,0.8 1.6,1.8c0,0.6 -0.4,1.9 -1.9,1.9c-0.4,0 -0.7,0 -3,-1.3c-4,-2.3 -4.5,-2.5 -8.4,-5.2l-3.4,-2.3zm6.4,6.2c1.5,0 1.9,0 2.5,0.5c0.3,0.4 0.5,0.8 0.5,1.3c0,0.8 -0.5,1.3 -0.9,1.5c-0.4,0.3 -0.9,0.3 -2.1,0.3l-14.9,0c-1.5,0 -1.9,0 -2.5,-0.5c-0.4,-0.4 -0.5,-0.8 -0.5,-1.3c0,-0.8 0.5,-1.3 0.8,-1.5c0.5,-0.3 1,-0.3 2.2,-0.3l14.9,0z" id="XMLID_118_"/>
    <path d="m296.5,34.8c-1,1 -3.2,2.9 -4.3,2.9c-1.1,0 -1.8,-0.8 -1.8,-1.8c0,-0.9 0.4,-1.2 2.8,-2.9c4.4,-3.2 7,-8.3 7,-9.1c0,-0.3 -0.1,-0.4 -0.7,-0.4l-5.5,0c-1.2,0 -1.8,0 -2.2,-0.3c-0.5,-0.4 -0.8,-0.8 -0.8,-1.5c0,-0.5 0.2,-0.9 0.5,-1.3c0.5,-0.4 0.9,-0.4 2.5,-0.4l2.6,0l0,-2.7c0,-1.1 0,-1.7 0.3,-2c0.3,-0.4 0.9,-0.8 1.5,-0.8c0.5,0 0.9,0.2 1.3,0.5c0.5,0.5 0.5,0.9 0.5,2.4l0,2.6l2.3,0c1.2,0 2.3,0.9 2.3,2.2c0,1.4 -1.6,4.7 -3.1,6.9c0.7,0.6 1.8,1.8 2.4,2.5c2.1,2.3 2.2,2.4 2.2,3.3c0,1.3 -1.2,1.8 -1.9,1.8c-0.9,0 -1.2,-0.4 -1.7,-1c-0.3,-0.4 -1.9,-2.4 -2.3,-2.9l0,11.8c0,1.5 0,1.9 -0.5,2.4c-0.4,0.4 -0.8,0.5 -1.4,0.5c-1.8,0 -1.8,-1.3 -1.8,-2.9l0,-9.8l-0.2,0zm16.4,8.2l0,-16.4l-5,0c-1.2,0 -1.8,0 -2.2,-0.3c-0.5,-0.3 -0.8,-0.8 -0.8,-1.5c0,-0.5 0.1,-0.9 0.5,-1.3c0.6,-0.5 1,-0.5 2.6,-0.5l5,0l0,-5.7c0,-1.6 0,-2.9 2,-2.9c1.8,0 1.8,1.4 1.8,2.9l0,5.7l4.7,0c1.2,0 1.8,0 2.2,0.3c0.5,0.3 0.8,0.8 0.8,1.5c0,0.5 -0.2,0.9 -0.5,1.3c-0.5,0.5 -0.9,0.5 -2.5,0.5l-4.7,0l0,16.4l5.4,0c1.2,0 1.8,0 2.1,0.3c0.6,0.4 0.9,1 0.9,1.5c0,0.5 -0.2,0.9 -0.5,1.3c-0.6,0.5 -0.9,0.5 -2.5,0.5l-15,0c-1.2,0 -1.8,0 -2.2,-0.3c-0.6,-0.4 -0.8,-1 -0.8,-1.5c0,-0.5 0.2,-0.9 0.5,-1.3c0.5,-0.5 0.9,-0.5 2.5,-0.5l5.7,0z" id="XMLID_115_"/>
   </g>
   <g id="XMLID_44_">
    <path d="m103.5,105.3c0,-0.5 0.6,-1.2 1.9,-1.2c0.7,0 1.4,0.2 1.9,0.9l4.6,6.6c0,0 0.1,0.1 0.1,0.1c0,0 0,-0.1 0,-0.1l0,-6.8c0,-0.3 0.4,-0.7 1,-0.7c0.6,0 1,0.3 1,0.7l0,7.6c0,0.6 -0.6,1.2 -1.7,1.2c-1.1,0 -1.6,-0.5 -2.5,-1.8l-4.2,-6c-0.1,-0.1 -0.1,-0.1 -0.1,-0.1c0,0 0,0.1 0,0.1l0,7.1c0,0.3 -0.4,0.7 -1,0.7c-0.6,0 -1,-0.3 -1,-0.7l0,-7.6z" id="XMLID_112_"/>
    <path d="m119,112.9c0,0.3 -0.4,0.7 -1,0.7c-0.5,0 -1,-0.3 -1,-0.7l0,-8c0,-0.3 0.4,-0.7 1,-0.7c0.6,0 1,0.3 1,0.7l0,8z" id="XMLID_110_"/>
    <path d="m126.3,104.1c2.6,0 4.7,1.1 4.7,1.7c0,0.3 -0.2,0.7 -0.9,0.7c-0.4,0 -0.6,-0.1 -0.8,-0.2c-1.3,-0.7 -1.9,-0.9 -3,-0.9c-1.6,0 -2.6,0.6 -2.6,1.4c0,0.2 0.1,0.4 0.3,0.6c0.3,0.3 1.5,0.6 2.7,0.8c0.7,0.1 1.4,0.3 2.1,0.4c1.3,0.3 2.6,0.9 2.6,2.4c0,1.4 -1.7,2.7 -4.9,2.7c-3.6,0 -5.3,-1.7 -5.3,-2.4c0,-0.4 0.5,-0.7 1.1,-0.7c0.4,0 0.6,0.1 0.8,0.2c0.1,0.1 0.4,0.6 0.5,0.7c0.7,0.8 2,0.9 2.8,0.9c2.1,0 2.9,-0.8 2.9,-1.5c0,-0.2 -0.1,-0.5 -0.3,-0.7c-0.4,-0.3 -1.6,-0.6 -2.8,-0.8c-0.7,-0.1 -1.4,-0.2 -2,-0.4c-1.4,-0.4 -2.5,-0.9 -2.5,-2.2c-0.2,-1.4 1.7,-2.7 4.6,-2.7z" id="XMLID_108_"/>
    <path d="m141.8,109.1l-6.4,0l0,3.8c0,0.3 -0.4,0.7 -1,0.7c-0.5,0 -1,-0.3 -1,-0.7l0,-8.1c0,-0.3 0.4,-0.7 1,-0.7c0.6,0 1,0.3 1,0.7l0,3.1l6.4,0l0,-3.1c0,-0.3 0.4,-0.7 1,-0.7c0.5,0 1,0.3 1,0.7l0,8.1c0,0.3 -0.4,0.7 -1,0.7c-0.5,0 -1,-0.3 -1,-0.7l0,-3.8z" id="XMLID_106_"/>
    <path d="m148.9,112.9c0,0.3 -0.4,0.7 -1,0.7c-0.5,0 -1,-0.3 -1,-0.7l0,-8c0,-0.3 0.4,-0.7 1,-0.7c0.6,0 1,0.3 1,0.7l0,8z" id="XMLID_104_"/>
    <path d="m158.2,104.3c1.1,0 1.8,0.2 2.7,0.7c0.7,0.4 1,1.1 1,1.7c0,0.6 -0.3,1.3 -1.1,1.7c-0.3,0.2 -0.5,0.2 -0.8,0.3c0.5,0.1 0.7,0.2 1,0.3c1,0.5 1.3,1.3 1.3,2c0,1.4 -1.6,2.6 -4.2,2.6l-4.7,0c-1,0 -1.6,-0.4 -1.6,-1l0,-7c0,-0.9 1,-1.1 2.1,-1.1l4.3,0l0,-0.2zm-4.2,5l0,2.7c0,0.2 0.1,0.2 0.3,0.2l4,0c1.1,0 2.2,-0.5 2.2,-1.4c0,-0.8 -0.9,-1.4 -1.9,-1.4l-4.6,0l0,-0.1zm0,-1.2l4.5,0c0.6,0 1.5,-0.6 1.5,-1.3c0,-0.6 -0.7,-1.2 -1.7,-1.2l-3.8,0c-0.3,0 -0.5,0.1 -0.5,0.3l0,2.2z" id="XMLID_100_"/>
    <path d="m172.7,104.8c0,-0.3 0.4,-0.7 1,-0.7c0.6,0 1,0.3 1,0.7l0,5.8c0,0.9 -0.4,1.5 -1.2,2.1c-0.8,0.6 -2.5,0.9 -4,0.9c-2.4,0 -5.1,-0.9 -5.1,-3l0,-5.8c0,-0.3 0.4,-0.7 1,-0.7c0.5,0 1,0.3 1,0.7l0,5.5c0,1.4 1.1,1.9 3.1,1.9c2.2,0 3.1,-0.7 3.1,-1.9l0,-5.5l0.1,0z" id="XMLID_98_"/>
    <path d="m125.4,75.4l6.8,0c2.4,0 3.3,1.5 3.3,2.9l0,17.7c0,1.4 -0.9,2.9 -3.3,2.9l-25,0c-2.4,0 -3.3,-1.5 -3.3,-2.9l0,-17.7c0,-1.4 0.9,-2.9 3.3,-2.9l5.8,0l0,-3.9l-7,0c-1.2,0 -1.7,0 -2.1,-0.3c-0.8,-0.5 -0.8,-1.2 -0.8,-1.5c0,-0.7 0.4,-1.2 0.8,-1.5c0.4,-0.3 0.9,-0.3 2.1,-0.3l27.5,0c1.2,0 1.8,0 2.1,0.3c0.8,0.5 0.9,1.2 0.9,1.5c0,0.7 -0.4,1.2 -0.8,1.5c-0.4,0.3 -0.9,0.3 -2.2,0.3l-8.1,0l0,3.9zm-8.7,3.7c0,2.4 -0.1,6.4 -2.5,10.4c-1.4,2.3 -2.1,2.6 -2.9,2.6c-0.7,0 -1.9,-0.6 -1.9,-1.8c0,-0.6 0.2,-0.9 1.7,-2.8c1.2,-1.6 2,-3.8 2,-8.5l-4.1,0c-1.4,0 -1.4,0.7 -1.4,1.5l0,13.3c0,0.8 0,1.5 1.4,1.5l21.5,0c1.4,0 1.4,-0.7 1.4,-1.5l0,-4.5c-0.9,1.9 -3.5,2 -5.2,2c-2.8,0 -4.8,-0.2 -4.8,-3l0,-9.3l-5.2,0l0,0.1zm5.1,-7.6l-5.1,0l0,3.9l5.1,0l0,-3.9zm3.6,15.3c0,0.8 0.4,1 1.8,1c1.5,0 1.8,-0.6 1.8,-2.1c0.1,-1.4 0.5,-2.1 1.6,-2.1c0.6,0 0.9,0.2 1.2,0.4l0,-3.3c0,-0.8 0,-1.5 -1.4,-1.5l-5,0l0,7.6z" id="XMLID_93_"/>
    <path d="m170.9,74.5c1.6,0 1.8,0 2.1,0.2c0.7,0.4 0.8,1 0.8,1.4c0,0.6 -0.4,1.1 -0.8,1.4c-0.4,0.2 -0.5,0.2 -2.1,0.2l-4.9,0c0.4,6.4 0.6,9.9 2.4,14.3c0.6,1.4 1.1,2.8 1.8,2.8c0.8,0 1,-1.5 1.2,-3.2c0.1,-1.1 1,-1.6 1.7,-1.6c0.4,0 1.7,0.3 1.7,1.9c0,2.6 -0.9,7.4 -4.1,7.4c-2.8,0 -4.6,-4 -5.2,-5.4c-1.4,-3.2 -2.7,-6.9 -3,-16.2l-19,0c-1.6,0 -1.8,0 -2.1,-0.2c-0.7,-0.4 -0.8,-1 -0.8,-1.4c0,-0.6 0.4,-1.1 0.8,-1.4c0.4,-0.2 0.6,-0.2 2.1,-0.2l18.9,0c0,-0.3 -0.1,-3.3 -0.1,-3.4c0,-2.8 0,-4.4 2,-4.4c0.5,0 0.9,0.2 1.3,0.5c0.6,0.5 0.6,0.9 0.6,1.9c0,0.9 -0.1,4.6 -0.1,5.4l4.8,0zm-20.1,19.5l0,-11.6c0,-1.5 0,-1.9 0.5,-2.4c0.4,-0.4 0.9,-0.5 1.4,-0.5c0.6,0 1.2,0.2 1.6,0.8c0.3,0.4 0.3,0.9 0.3,2.1l0,1.4l3.9,0c1.5,0 2,0 2.5,0.5c0.3,0.3 0.5,0.7 0.5,1.3c0,0.8 -0.5,1.3 -0.8,1.5c-0.4,0.3 -0.9,0.3 -2.2,0.3l-3.9,0l0,6.2l5.3,-0.8c1.1,-0.2 1.2,-0.2 1.5,-0.2c1.1,0 1.7,0.8 1.7,1.7c0,1.4 -1.3,1.6 -2.7,1.8l-16.9,2.6c-0.9,0.1 -1.2,0.2 -1.5,0.2c-1.1,0 -1.7,-0.9 -1.7,-1.8c0,-0.6 0.3,-1.1 0.6,-1.3c0.3,-0.3 0.6,-0.4 2.4,-0.6l0,-11.8c0,-1.2 0,-1.7 0.3,-2.1c0.5,-0.7 1.1,-0.8 1.5,-0.8c0.7,0 1.2,0.4 1.5,0.8c0.3,0.4 0.3,0.9 0.3,2.1l0,11.2l3.9,-0.6zm5.3,-25.5c1.6,0 1.8,0 2.2,0.2c0.6,0.4 0.8,0.9 0.8,1.4c0,0.6 -0.3,1.1 -0.8,1.4c-0.4,0.2 -0.6,0.2 -2.2,0.2l-11.1,0c-1.6,0 -1.8,0 -2.2,-0.2c-0.6,-0.4 -0.8,-0.9 -0.8,-1.4c0,-0.6 0.3,-1.1 0.8,-1.4c0.4,-0.3 0.5,-0.3 2.2,-0.3l11.1,0l0,0.1zm15.9,4.7c-0.8,0 -1.1,-0.4 -1.3,-0.7c-1.1,-1.4 -1.7,-2.3 -2.8,-3.8c-0.1,-0.1 -0.1,-0.3 -0.1,-0.5c0,-0.9 0.6,-1.6 1.6,-1.6c0.7,0 1.2,0.4 1.7,1c1.9,2.4 2.3,3 2.5,3.8c0.1,0.7 -0.6,1.8 -1.6,1.8z" id="XMLID_88_"/>
    <path d="m199.4,86.5c-0.8,1.7 -2.3,5.1 -4.9,7.8c-2.1,2.2 -2.7,2.2 -3.3,2.2c-1.4,0 -1.8,-1.1 -1.8,-1.6c0,-0.7 0,-0.7 1.8,-2.6c3.8,-4 5.5,-8.5 5.7,-9l-3.5,0c-1.2,0 -1.8,0 -2.2,-0.3c-0.3,-0.2 -0.8,-0.7 -0.8,-1.4c0,-0.5 0.2,-1 0.9,-1.4c0.4,-0.3 0.9,-0.3 2.1,-0.3l6.1,0l0,-4.6l-4.1,0c-1.1,2.6 -1.6,3.4 -2.9,3.4c-1.6,0 -2,-1.1 -2,-1.6c0,-0.4 0.1,-0.6 0.8,-1.9c1.2,-2.3 1.5,-3.7 2.2,-6.4c0.3,-1.3 1.1,-1.6 1.6,-1.6c0.6,0 2,0.5 2,1.8c0,0.4 -0.1,1.6 -0.5,3l3,0l0,-2.4c0,-1.2 0,-1.7 0.3,-2.1c0.4,-0.5 0.9,-0.8 1.6,-0.8c0.5,0 0.9,0.1 1.4,0.5c0.5,0.5 0.5,0.9 0.5,2.4l0,2.4l5.1,0c1.2,0 1.8,0 2.2,0.3c0.2,0.2 0.8,0.6 0.8,1.4c0,0.8 -0.6,1.2 -0.8,1.4c-0.4,0.3 -0.9,0.3 -2.1,0.3l-5.1,0l0,4.6l5.5,0c1.5,0 2,0 2.5,0.5c0.3,0.3 0.5,0.8 0.5,1.1c0,0.4 -0.2,0.9 -0.6,1.2c-0.5,0.5 -0.9,0.5 -2.4,0.5l-2.7,0c0.8,2.3 3,6.6 5.1,8.9c1.4,1.4 1.9,2 1.9,2.9c0,1.1 -1,1.6 -1.6,1.6c-1.4,0 -2.4,-1.3 -4.9,-4.5c-0.1,-0.2 -2.3,-3.3 -3.4,-6.4l0,11.2c0,1.2 0,1.7 -0.3,2c-0.4,0.6 -1,0.8 -1.6,0.8c-0.5,0 -1,-0.1 -1.4,-0.5c-0.5,-0.5 -0.5,-0.9 -0.5,-2.4l0,-10.4l-0.2,0zm-12.8,10.4c0,1.2 0,1.6 -0.3,2c-0.5,0.7 -1,0.8 -1.5,0.8c-0.8,0 -1.2,-0.5 -1.4,-0.8c-0.3,-0.4 -0.3,-0.9 -0.3,-2l0,-11.4c-1.4,2.6 -2.4,3.8 -2.6,4c-0.5,0.6 -0.9,1 -1.7,1c-1.4,0 -1.7,-1.1 -1.7,-1.6c0,-0.6 0.2,-0.8 1.5,-2.7c1.3,-1.9 2.8,-5 3.4,-6.7c0.2,-0.5 0.8,-2.5 0.9,-2.9l-1.9,0c-1.2,0 -1.7,0 -2.1,-0.3c-0.8,-0.5 -0.9,-1.2 -0.9,-1.5c0,-0.7 0.5,-1.2 0.8,-1.4c0.4,-0.3 0.9,-0.3 2.2,-0.3l2.1,0l0,-3.3c0,-1.2 0,-1.6 0.3,-2c0.5,-0.7 1,-0.8 1.5,-0.8c0.8,0 1.2,0.5 1.4,0.8c0.3,0.4 0.3,0.9 0.3,2l0,3.3l1,0c1.2,0 1.8,0 2.1,0.3c0.8,0.5 0.9,1.2 0.9,1.5c0,0.7 -0.5,1.2 -0.8,1.4c-0.4,0.3 -0.9,0.3 -2.2,0.3l-1,0l0,0.2c0.7,2.7 3.3,6.4 3.8,6.9c1.2,1.5 1.3,1.7 1.3,2.3c0,1.1 -0.9,1.6 -1.8,1.6c-1.3,0 -1.9,-0.9 -3.3,-3.2l0,12.5z" id="XMLID_85_"/>
    <path d="m239.7,76.4c0.6,15.4 5.4,18.6 6,18.6c0.4,0 0.6,-0.3 0.7,-1.3c0.1,-0.6 0.3,-3.9 0.3,-4c0.2,-0.7 0.9,-1.2 1.7,-1.2c1.8,0 1.8,1.6 1.8,2.6c0,3.3 -0.5,8.3 -3.6,8.3c-0.8,0 -2.3,-0.5 -3.4,-1.5c-2.6,-2.4 -4.9,-5.9 -6.2,-14.5c-0.4,-2.4 -0.7,-4.7 -0.8,-7.1l-17.5,0c-1.2,0 -1.7,0 -2.1,-0.3c-0.8,-0.5 -0.9,-1.1 -0.9,-1.5c0,-0.7 0.5,-1.2 0.8,-1.4c0.4,-0.3 0.9,-0.3 2.2,-0.3l17.4,0c0,-3.3 0,-4.4 0.2,-5c0.1,-0.3 0.4,-1.3 1.7,-1.3c0.5,0 1.1,0.2 1.5,0.6c0.5,0.4 0.5,0.7 0.5,2l0,2.2l0,1.7l5.6,0c-0.5,-0.4 -2,-2.8 -2.4,-3.2c-0.7,-0.9 -0.9,-1.1 -0.9,-1.6c0,-1 0.8,-1.7 1.8,-1.7c0.9,0 1.4,0.5 1.9,1.1c0.4,0.5 2.6,3 2.6,3.9c0,0.9 -0.5,1.3 -0.9,1.5c0.4,0 2.1,0 2.1,1.7c0,0.7 -0.4,1.2 -0.8,1.4c-0.4,0.3 -0.9,0.3 -2.2,0.3l-7.1,0zm-12.2,16.8c2.4,-0.5 3.2,-0.7 6.2,-1.5c0.3,-0.1 0.7,-0.1 0.9,-0.1c0.9,0 1.7,0.8 1.7,1.7c0,1.4 -1.2,1.7 -3.8,2.4c-6.2,1.6 -13.5,2.6 -15.2,2.6c-1.4,0 -2,-0.9 -2,-1.9c0,-1.6 1.4,-1.8 2.1,-1.8c3.3,-0.3 3.5,-0.4 6.4,-0.8l0,-9.1l-4.6,0c-1.2,0 -1.8,0 -2.2,-0.3c-0.8,-0.5 -0.8,-1.2 -0.8,-1.5c0,-0.7 0.4,-1.2 0.8,-1.4c0.4,-0.3 0.9,-0.3 2.2,-0.3l12.5,0c1.2,0 1.8,0 2.2,0.3c0.8,0.5 0.8,1.2 0.8,1.5c0,0.7 -0.4,1.2 -0.8,1.4c-0.4,0.3 -0.9,0.3 -2.2,0.3l-4.4,0l0,8.5l0.2,0z" id="XMLID_80_"/>
    <path d="m256.3,87.9c-1.4,0 -1.9,0 -2.4,-0.5c-0.3,-0.4 -0.6,-0.9 -0.6,-1.3c0,-0.4 0.3,-1.1 0.9,-1.4c0.5,-0.3 1.1,-0.3 2.1,-0.3l27.6,0c1.4,0 1.9,0 2.4,0.5c0.3,0.4 0.6,0.9 0.6,1.3c0,0.4 -0.3,1.1 -0.9,1.4c-0.5,0.3 -1.1,0.3 -2.1,0.3l-17.4,0c-0.4,1.3 -2.3,5.5 -3.1,7.1c4.4,-0.3 7,-0.4 13.2,-0.9c0.7,0 1.5,-0.1 2,-0.1c-0.3,-0.4 -1.7,-2.1 -2,-2.4c-0.4,-0.5 -0.5,-0.8 -0.5,-1.1c0,-1.2 1,-1.8 1.9,-1.8c0.6,0 0.9,0.1 2.4,1.7c2.3,2.6 4.3,5.4 4.8,6.1c0.4,0.6 0.5,0.9 0.5,1.4c0,1.2 -1.2,1.8 -1.8,1.8c-0.1,0 -0.8,0 -1.4,-0.5c-0.1,-0.1 -0.9,-1.3 -1.4,-2c-3.8,0.6 -19.3,1.6 -20.3,1.7c-0.7,0 -4,0.3 -4.6,0.3c-1.8,0 -2.3,-1.1 -2.3,-1.9c0,-0.9 0.6,-1.6 1.7,-1.8c0.4,-0.1 2.4,-0.1 3.7,-0.2c2,-3.9 2.7,-5.9 3.3,-7.4l-6.3,0zm14.4,-17.3c-0.5,-0.3 -0.6,-0.3 -0.8,-0.3c-0.4,0 -0.7,0.2 -1.3,0.6c-3.4,2.3 -6.9,4.6 -11.9,7.4c-1.1,0.6 -1.4,0.8 -2,0.8c-1.2,0 -1.8,-1 -1.8,-1.9c0,-1 0.5,-1.3 2.5,-2.3c4.2,-2.1 6.1,-3.4 11,-6.8c1.4,-1 2.3,-1.5 3.6,-1.5c1.4,0 2.4,0.8 6.2,3.3c1.2,0.8 6.9,4.5 9.6,5.8c0.8,0.4 1.6,0.8 1.6,1.8c0,0.6 -0.4,1.9 -1.9,1.9c-0.4,0 -0.7,0 -3,-1.3c-4,-2.3 -4.5,-2.5 -8.4,-5.2l-3.4,-2.3zm6.4,6.3c1.5,0 1.9,0 2.5,0.5c0.3,0.4 0.5,0.8 0.5,1.3c0,0.8 -0.5,1.3 -0.9,1.5c-0.4,0.3 -0.9,0.3 -2.1,0.3l-14.9,0c-1.5,0 -1.9,0 -2.5,-0.5c-0.4,-0.4 -0.5,-0.8 -0.5,-1.3c0,-0.8 0.5,-1.3 0.8,-1.5c0.5,-0.3 1,-0.3 2.2,-0.3l14.9,0z" id="XMLID_70_"/>
    <path d="m296.5,87.1c-1,1 -3.2,2.9 -4.3,2.9c-1.1,0 -1.8,-0.8 -1.8,-1.8c0,-0.9 0.4,-1.2 2.8,-2.9c4.4,-3.2 7,-8.3 7,-9.1c0,-0.3 -0.1,-0.4 -0.7,-0.4l-5.5,0c-1.2,0 -1.8,0 -2.2,-0.3c-0.5,-0.4 -0.8,-0.8 -0.8,-1.5c0,-0.5 0.2,-0.9 0.5,-1.3c0.5,-0.5 0.9,-0.5 2.5,-0.5l2.6,0l0,-2.7c0,-1.1 0,-1.7 0.3,-2c0.3,-0.4 0.9,-0.8 1.5,-0.8c0.5,0 0.9,0.2 1.3,0.5c0.5,0.5 0.5,0.9 0.5,2.4l0,2.7l2.3,0c1.2,0 2.3,0.9 2.3,2.2c0,1.4 -1.6,4.7 -3.1,6.9c0.7,0.6 1.8,1.8 2.4,2.5c2.1,2.3 2.2,2.4 2.2,3.3c0,1.3 -1.2,1.8 -1.9,1.8c-0.9,0 -1.2,-0.4 -1.7,-1c-0.3,-0.4 -1.9,-2.4 -2.3,-2.9l0,11.8c0,1.5 0,1.9 -0.5,2.4c-0.4,0.4 -0.8,0.5 -1.4,0.5c-1.8,0 -1.8,-1.3 -1.8,-2.9l0,-9.8l-0.2,0zm16.4,8.1l0,-16.4l-5,0c-1.2,0 -1.8,0 -2.2,-0.3c-0.5,-0.3 -0.8,-0.8 -0.8,-1.5c0,-0.5 0.1,-0.9 0.5,-1.3c0.5,-0.5 0.9,-0.5 2.5,-0.5l5,0l0,-5.7c0,-1.6 0,-2.9 2,-2.9c1.8,0 1.8,1.4 1.8,2.9l0,5.7l4.7,0c1.2,0 1.8,0 2.2,0.3c0.5,0.3 0.8,0.8 0.8,1.5c0,0.5 -0.2,0.9 -0.5,1.3c-0.5,0.5 -0.9,0.5 -2.5,0.5l-4.7,0l0,16.4l5.4,0c1.2,0 1.8,0 2.1,0.3c0.6,0.4 0.9,1 0.9,1.5c0,0.5 -0.2,0.9 -0.5,1.3c-0.6,0.5 -0.9,0.5 -2.5,0.5l-15,0c-1.2,0 -1.8,0 -2.2,-0.3c-0.6,-0.4 -0.8,-1 -0.8,-1.5c0,-0.5 0.2,-0.9 0.5,-1.3c0.5,-0.5 0.9,-0.5 2.5,-0.5l5.8,0z" id="XMLID_62_"/>
   </g>
   <g id="XMLID_165_">
    <path d="m29.5,49.7l0,23.9c0,4.4 2.4,8 6,8l-13.7,0c-4.3,0 -7.8,-3.6 -7.8,-8l0,-23.9l15.5,0z" class="st0" id="XMLID_162_"/>
    <path d="m48.7,45.9l0,-23.9c0,-4.4 3.6,-8 7.2,-8l-14.9,0c-4.3,0 -7.8,3.6 -7.8,8l0,23.9l15.5,0z" class="st1" id="XMLID_161_"/>
    <path d="m48.7,49.7l0,23.9c0,4.4 2.4,8 6,8l-13.7,0c-4.3,0 -7.8,-3.6 -7.8,-8l0,-23.9l15.5,0z" class="st0" id="XMLID_160_"/>
    <path d="m87.1,45.9l0,-23.9c0,-4.4 -3.5,-8 -7.8,-8s-7.8,3.6 -7.8,8l0,23.9l15.6,0z" class="st0" id="XMLID_159_"/>
    <path d="m67.9,73.6c0,4.4 -3.5,8 -7.8,8c-4.3,0 -7.8,-3.6 -7.8,-8l0,-51.6c0,-4.4 3.5,-8 7.8,-8l15,0c-3.6,0 -7.2,3.6 -7.2,8l0,51.6z" class="st1" id="XMLID_158_"/>
    <path d="m16.5,92.5l0.1,4.9l3,0c0,0 0.1,0 0.1,0.1c0,0.1 0.1,9.5 0.1,9.5s-0.1,5.6 5.7,6.3l17.1,0l0,-4.9l-16.9,0c0,0 -1,-0.2 -1,-1.4l-0.1,-9.6c0,0 0,-0.1 0.1,-0.1l14.1,0c0,0 0.5,0 0.5,0.6c0,0.7 -0.6,2.6 -3.2,3.1c-2.1,0.1 -5.8,-0.4 -5.8,-0.4l0,4.9c0,0 6.1,0.9 8.2,-0.1c0,0 4.5,-1.2 5.5,-6.4c1,-5.1 -3.4,-6.6 -4.4,-6.6c-1,0 -15.1,0 -15.1,0s-0.1,0 -0.1,-0.1c0,-0.1 -0.1,-2.8 -0.1,-2.8s0,0 -0.2,0l-4.8,0l0.1,2.9c0,0 0,0.1 -0.1,0.1c0,0 -2.8,0 -2.8,0" class="st1" id="XMLID_157_"/>
    <path d="m44.5,92.5l0,4.9l16.9,0.1c0,0 1,0.1 1.1,1.1c0.1,1 0,9.3 0,9.3s0.1,0.6 -0.7,0.6c-0.8,0 -17.2,0 -17.2,0l0,4.9l20.3,0c0,0 1.1,0.1 1.9,-0.7c0.8,-0.8 0.7,-1.6 0.7,-1.6l-0.1,-12.7c0,0 0.1,-1.9 -1.5,-3.8c-1.6,-1.9 -4.2,-2.1 -4.2,-2.1l-17.2,0z" class="st1" id="XMLID_156_"/>
    <rect height="4.9" width="17.9" class="st1" y="108.5" x="68.9" id="XMLID_163_"/>
   </g>
  </g>
 </g>
</svg>